<svg width="24" height="25" viewBox="0 0 24 25" fill="none" xmlns="http://www.w3.org/2000/svg">
<path opacity="0.5" d="M12.832 22.3011C15.958 21.6751 20 19.4261 20 13.6111C20 8.32005 16.127 4.79605 13.342 3.17705C12.723 2.81705 12 3.29005 12 4.00505V5.83305C12 7.27505 11.394 9.90705 9.71 11.0021C8.85 11.5611 7.92 10.7241 7.816 9.70405L7.73 8.86605C7.63 7.89205 6.638 7.30105 5.86 7.89505C4.461 8.96005 3 10.8301 3 13.6101C3 20.7211 8.289 22.5001 10.933 22.5001C11.0877 22.5001 11.249 22.4951 11.417 22.4851C11.863 22.4291 11.417 22.5841 12.832 22.3001" fill="#909090"/>
<path d="M8 18.9441C8 21.5641 10.111 22.3741 11.417 22.4861C11.863 22.4301 11.417 22.5851 12.832 22.3011C13.871 21.9341 15 20.9921 15 18.9441C15 17.6471 14.181 16.8461 13.54 16.4711C13.344 16.3561 13.116 16.5011 13.099 16.7271C13.043 17.4451 12.353 18.0171 11.884 17.4711C11.469 16.9891 11.294 16.2841 11.294 15.8331V15.2431C11.294 14.8891 10.937 14.6531 10.631 14.8351C9.495 15.5081 8 16.8941 8 18.9441Z" fill="#909090"/>
</svg>
