<svg width="81" height="81" viewBox="0 0 81 81" fill="none" xmlns="http://www.w3.org/2000/svg">
<path opacity="0.5" fill-rule="evenodd" clip-rule="evenodd" d="M73.8333 28.1433C73.8333 39.73 64.4 49.1233 52.7666 49.1233C50.6466 49.1233 45.8133 48.6366 43.4633 46.6833L40.5233 49.61C38.7933 51.3333 39.26 51.84 40.03 52.6733C40.35 53.0233 40.7233 53.4266 41.0133 54.0033C41.0133 54.0033 43.4633 57.4166 41.0133 60.8333C39.5433 62.7833 35.4266 65.5133 30.7266 60.8333L29.7466 61.8066C29.7466 61.8066 32.6833 65.2233 30.2366 68.64C28.7666 70.59 24.8466 72.54 21.4166 69.1266L17.99 72.54C15.6366 74.8833 12.7633 73.5166 11.6233 72.54L8.67998 69.6133C5.93665 66.88 7.53665 63.92 8.67998 62.78L34.1533 37.4133C34.1533 37.4133 31.7033 33.5133 31.7033 28.1466C31.7033 16.56 41.1366 7.16663 52.77 7.16663C64.4033 7.16663 73.8333 16.56 73.8333 28.1433Z" fill="#FF9B62"/>
<path d="M60.1167 28.1467C60.1123 30.091 59.3359 31.954 57.9582 33.3261C56.5805 34.6981 54.7144 35.4669 52.77 35.4633C50.8257 35.4669 48.9595 34.6981 47.5818 33.3261C46.2042 31.954 45.4278 30.091 45.4233 28.1467C45.4251 27.1836 45.6165 26.2304 45.9867 25.3413C46.3568 24.4523 46.8984 23.6449 47.5806 22.9651C48.2628 22.2854 49.0723 21.7467 49.9626 21.3798C50.853 21.0129 51.807 20.8249 52.77 20.8267C53.733 20.8249 54.687 21.0129 55.5774 21.3798C56.4678 21.7467 57.2772 22.2854 57.9594 22.9651C58.6416 23.6449 59.1832 24.4523 59.5534 25.3413C59.9235 26.2304 60.1149 27.1836 60.1167 28.1467Z" fill="#FF9B62"/>
</svg>
